<svg xmlns="http://www.w3.org/2000/svg" viewBox="0 0 152 152">
  <path fill-rule="evenodd" clip-rule="evenodd" d="M79.88 140.21c-0.04-0.02-0.07-0.06-0.12-0.07 -0.33-0.1-0.49-0.34-0.63-0.64 -0.18-0.38-0.42-0.73-0.64-1.09 -0.45-0.72-0.9-1.43-1.35-2.15 -0.03-0.05-0.09-0.1-0.09-0.15 0.02-0.28-0.18-0.43-0.31-0.62 -0.24-0.36-0.49-0.71-0.71-1.09 -0.2-0.36-0.49-0.64-0.8-0.9 -0.08-0.07-0.1-0.13-0.13-0.23 -0.05-0.16-0.15-0.3-0.25-0.44 -0.3-0.43-0.53-0.91-0.87-1.32 -0.12-0.14-0.18-0.34-0.26-0.51 -0.02-0.04-0.05-0.11-0.08-0.11 -0.28-0.02-0.29-0.28-0.4-0.44 -0.04-0.06-0.06-0.13-0.11-0.18 -0.47-0.48-0.74-1.09-1.08-1.65 -0.29-0.48-0.57-0.98-0.85-1.47 -0.07-0.12-0.13-0.25-0.16-0.39 -0.06-0.23-0.16-0.42-0.4-0.52 -0.27-0.11-0.43-0.32-0.52-0.6 -0.06-0.19-0.22-0.35-0.33-0.53 -0.17-0.25-0.38-0.49-0.5-0.77 -0.23-0.51-0.55-0.96-0.84-1.43 -0.31-0.51-0.6-1.03-0.91-1.55 -0.12-0.21-0.26-0.41-0.39-0.61 -0.36-0.57-0.67-1.18-1.08-1.71 -0.28-0.38-0.5-0.79-0.76-1.18 -0.4-0.6-0.76-1.23-1.14-1.84 -0.02-0.03-0.04-0.06-0.06-0.09 -0.62-0.92-1.24-1.85-1.87-2.77 -0.21-0.32-0.45-0.62-0.66-0.94 -0.09-0.14-0.16-0.29-0.25-0.44 -0.14-0.23-0.28-0.47-0.44-0.7 -0.36-0.55-0.72-1.1-1.1-1.63 -0.22-0.3-0.4-0.62-0.68-0.87 -0.09-0.08-0.14-0.2-0.2-0.3 -0.26-0.42-0.51-0.84-0.78-1.25 -0.2-0.31-0.43-0.61-0.64-0.92 -0.34-0.51-0.68-1.01-1.02-1.52 -0.25-0.38-0.51-0.76-0.75-1.15 -0.37-0.58-0.72-1.17-1.09-1.74 -0.39-0.62-0.8-1.22-1.2-1.84 -0.34-0.53-0.66-1.07-0.99-1.59 -0.35-0.56-0.72-1.1-1.08-1.66 -0.3-0.46-0.64-0.9-0.9-1.39 -0.33-0.61-0.81-1.14-1.1-1.77 -0.18-0.4-0.46-0.72-0.68-1.08 -0.45-0.75-0.96-1.46-1.46-2.2 0.21-0.27 0.41-0.52 0.6-0.78 0.46-0.62 0.89-1.26 1.37-1.87 0.2-0.25 0.29-0.52 0.4-0.8 0.1-0.25 0.27-0.48 0.42-0.71 0.03-0.05 0.08-0.12 0.13-0.12 0.39-0.06 0.56-0.39 0.79-0.65 0.01-0.01 0.02-0.01 0.07-0.03 0.09 0.13 0.22 0.25 0.27 0.4 0.07 0.22 0.21 0.37 0.34 0.55 0.23 0.32 0.43 0.67 0.65 1.01 0.3 0.47 0.61 0.93 0.91 1.39 0.14 0.22 0.27 0.45 0.4 0.68 0.01 0.02 0.01 0.05 0.02 0.07 0.47 0.44 0.69 1.04 1.05 1.55 0.37 0.53 0.68 1.1 1.03 1.65 0.24 0.38 0.49 0.74 0.73 1.12 0.27 0.42 0.52 0.83 0.79 1.25 0.22 0.35 0.45 0.71 0.67 1.06 0.28 0.44 0.58 0.88 0.86 1.32 0.46 0.73 0.93 1.46 1.38 2.2 0.3 0.49 0.59 0.98 0.89 1.47 0.06 0.09 0.15 0.16 0.2 0.26 0.16 0.26 0.3 0.52 0.46 0.77 0.4 0.63 0.81 1.26 1.22 1.88 0.45 0.69 0.91 1.37 1.37 2.05 0.33 0.49 0.67 0.96 0.99 1.46 0.33 0.52 0.63 1.06 0.97 1.57 0.5 0.77 1.02 1.52 1.52 2.29 0.45 0.69 0.87 1.39 1.32 2.08 0.52 0.8 1.05 1.59 1.57 2.39 0.25 0.39 0.48 0.78 0.72 1.17 0.02 0.03 0.04 0.06 0.06 0.09 0.41 0.45 0.63 1.02 0.98 1.51 0.34 0.5 0.67 1 1 1.5 0.5 0.76 0.99 1.52 1.49 2.27 0.03 0.04 0.06 0.08 0.08 0.12 0.3 0.81 0.85 1.49 1.21 2.26 0.1 0.22 0.19 0.41 0.43 0.5 0.04 0.02 0.08 0.06 0.1 0.1 0.25 0.4 0.49 0.79 0.74 1.19 0.01 0.01 0.01 0.02 0.02 0.03 0.52 0.56 0.79 1.28 1.22 1.9 0.71 1.01 1.41 2.02 2.09 3.04 0.57 0.85 1.11 1.73 1.67 2.59 0.2 0.3 0.43 0.58 0.63 0.88 0.31 0.47 0.61 0.96 0.92 1.43 0.21 0.33 0.45 0.64 0.63 0.97 0.21 0.39 0.39 0.8 0.58 1.21 0.07 0.15 0.01 0.27-0.13 0.33 -0.24 0.1-0.45 0.26-0.73 0.29 -0.4 0.06-0.78 0.21-1.18 0.31 -0.61 0.15-1.22 0.27-1.83 0.42 -0.17 0.04-0.34 0.13-0.5 0.2 -0.24 0.1-0.48 0.2-0.71 0.3C79.98 140.21 79.93 140.21 79.88 140.21zM14.3 13.2c-0.48 0.44-0.96 0.89-1.52 1.23 -0.16 0.1-0.29 0.27-0.45 0.42 -0.09-0.02-0.22-0.04-0.35-0.06 -0.35-0.05-0.58 0.16-0.56 0.5 0.02 0.36 0.05 0.72 0.07 1.08 0.25 0.1 0.25 0.1 0.29 0.48 0.09 0.07 0.18 0.12 0.25 0.19 0.4 0.4 0.58 0.94 0.89 1.4 0.46 0.71 0.88 1.44 1.33 2.16 0.5 0.79 1.01 1.56 1.51 2.34 0.36 0.56 0.72 1.12 1.08 1.68 0.3 0.47 0.62 0.93 0.92 1.39 0.39 0.6 0.78 1.21 1.17 1.81 0.4 0.62 0.82 1.22 1.22 1.84 0.52 0.81 1.03 1.63 1.56 2.43 0.28 0.44 0.59 0.86 0.87 1.29 0.63 0.96 1.25 1.92 1.88 2.88 0.46 0.71 0.94 1.41 1.4 2.11 0.36 0.55 0.7 1.1 1.05 1.65 0.58 0.89 1.17 1.78 1.74 2.68 0.48 0.76 0.94 1.53 1.42 2.28 0.41 0.65 0.85 1.29 1.27 1.94 0.61 0.94 1.22 1.89 1.83 2.84 0.5 0.77 0.99 1.55 1.49 2.32 0.34 0.53 0.7 1.05 1.04 1.57 0.45 0.69 0.89 1.38 1.34 2.06 0.27 0.4 0.55 0.8 0.81 1.21 0.15 0.23 0.26 0.49 0.41 0.72 0.37 0.55 0.74 1.1 1.12 1.65 0.27 0.4 0.55 0.79 0.81 1.2 0.19 0.29 0.37 0.59 0.56 0.88 0.15 0.23 0.33 0.45 0.48 0.69 0.43 0.68 0.85 1.37 1.29 2.06 0.31 0.48 0.62 0.95 0.94 1.43 0.09 0.13 0.2 0.25 0.28 0.36 0.16-0.19 0.32-0.35 0.44-0.54 0.24-0.38 0.45-0.79 0.7-1.17 0.4-0.6 0.81-1.2 1.23-1.78 0.18-0.24 0.26-0.58 0.6-0.68 0.01 0 0-0.04 0-0.06 -0.09-0.22 0.16-0.05 0.17-0.11 -0.02-0.25-0.01-0.44-0.16-0.64 -0.38-0.5-0.69-1.06-1.08-1.57 -0.52-0.67-0.94-1.42-1.41-2.14 -0.12-0.19-0.29-0.35-0.38-0.55 -0.19-0.41-0.48-0.75-0.73-1.11 -0.1-0.15-0.17-0.32-0.27-0.46 -0.25-0.35-0.52-0.69-0.76-1.04 -0.39-0.59-0.75-1.21-1.14-1.8 -0.67-1.03-1.35-2.06-2.02-3.1 -0.19-0.29-0.34-0.61-0.52-0.91 -0.1-0.17-0.19-0.33-0.3-0.49 -0.36-0.52-0.77-1-1.06-1.55 -0.29-0.54-0.62-1.06-0.97-1.57 -0.56-0.81-1.11-1.63-1.62-2.48 -0.4-0.66-0.78-1.31-1.22-1.94 -0.3-0.43-0.53-0.91-0.81-1.35 -0.32-0.5-0.68-0.97-1-1.47 -0.35-0.54-0.66-1.09-1.01-1.63 -0.56-0.85-1.13-1.68-1.7-2.52 -0.16-0.24-0.31-0.48-0.47-0.73 -0.09-0.14-0.16-0.29-0.25-0.43 -0.16-0.24-0.33-0.47-0.49-0.71 -0.51-0.77-1.02-1.55-1.53-2.33 -0.08-0.12-0.14-0.25-0.22-0.37 -0.38-0.57-0.77-1.13-1.15-1.7 -0.11-0.17-0.21-0.35-0.32-0.52 -0.17-0.26-0.37-0.5-0.54-0.76 -0.19-0.29-0.36-0.6-0.55-0.89 -0.17-0.26-0.34-0.51-0.48-0.79 -0.04-0.08-0.09-0.14-0.14-0.21 -0.22-0.32-0.46-0.62-0.66-0.95 -0.27-0.44-0.51-0.9-0.77-1.34 -0.12-0.2-0.27-0.37-0.39-0.57 -0.53-0.84-1.04-1.68-1.57-2.52 -0.3-0.48-0.62-0.95-0.92-1.43 -0.31-0.5-0.6-1.01-0.91-1.52 -0.02-0.04-0.06-0.08-0.06-0.13 -0.02-0.26-0.18-0.47-0.28-0.7 -0.14-0.35-0.45-0.53-0.75-0.63 -0.25-0.09-0.39-0.22-0.5-0.42 -0.03-0.06-0.08-0.11-0.12-0.18 -0.15 0.1-0.28 0.18-0.38 0.25 -0.11-0.06-0.19-0.1-0.26-0.15 -0.16-0.1-0.32-0.2-0.48-0.29C14.45 13.2 14.38 13.2 14.3 13.2zM48.6 76.19c-0.13 0.28-0.23 0.58-0.34 0.87 -0.03 0.08-0.06 0.17-0.12 0.23 -0.24 0.26-0.48 0.51-0.73 0.75 -0.16 0.16-0.36 0.28-0.51 0.45 -0.17 0.19-0.3 0.41-0.45 0.62 -0.41 0.57-0.81 1.15-1.22 1.71 -0.2 0.28-0.43 0.55-0.64 0.82 -0.12 0.15-0.27 0.28-0.36 0.44 -0.21 0.36-0.37 0.76-0.67 1.07 -0.06 0.07-0.11 0.16-0.15 0.24 -0.13 0.27-0.24 0.55-0.4 0.8 -0.48 0.74-0.98 1.46-1.47 2.2 -0.61 0.91-1.22 1.83-1.83 2.75 -0.7 1.06-1.39 2.12-2.09 3.18 -0.4 0.61-0.83 1.21-1.23 1.83 -0.57 0.86-1.12 1.72-1.69 2.58 -0.57 0.87-1.14 1.73-1.72 2.6 -0.48 0.73-0.97 1.47-1.46 2.2 -0.11 0.16-0.19 0.34-0.3 0.49 -0.23 0.33-0.47 0.65-0.69 0.98 -0.66 0.98-1.31 1.97-1.97 2.95 -0.33 0.49-0.65 0.98-0.98 1.47 -0.56 0.83-1.12 1.66-1.67 2.5 -0.41 0.62-0.79 1.24-1.2 1.86 -0.25 0.38-0.54 0.75-0.79 1.13 -0.72 1.07-1.43 2.15-2.15 3.23 -0.52 0.78-1.07 1.55-1.59 2.33 -1.09 1.64-2.17 3.3-3.25 4.94 -0.4 0.62-0.81 1.23-1.22 1.84 -0.86 1.31-1.73 2.62-2.59 3.93 -0.27 0.41-0.56 0.82-0.82 1.24 -0.4 0.65-0.76 1.31-1.18 1.95 -0.51 0.78-1.05 1.54-1.57 2.31 -0.18 0.27-0.33 0.56-0.47 0.86 -0.1 0.22 0 0.49 0.18 0.5 0.2 0.02 0.32 0.14 0.47 0.24 0.19 0.12 0.25 0.39 0.5 0.44 0.04 0.01 0.06 0.07 0.08 0.11 0.09 0.18 0.15 0.37 0.26 0.54 0.27 0.46 0.6 0.86 1.14 1.03 0.31 0.1 0.62 0.2 0.94 0.28 0.1 0.02 0.23 0.01 0.31-0.04 0.43-0.25 0.82-0.52 1.1-0.97 0.6-0.96 1.26-1.88 1.9-2.82 0.79-1.16 1.59-2.32 2.39-3.48 0.19-0.28 0.39-0.55 0.58-0.82 0.33-0.47 0.65-0.95 0.96-1.43 0.21-0.33 0.51-0.59 0.67-0.98 0.12-0.28 0.32-0.55 0.58-0.77 0.32-0.26 0.53-0.62 0.64-1.03 0.05-0.18 0.14-0.36 0.25-0.52 0.38-0.61 0.78-1.22 1.17-1.83 0.28-0.44 0.56-0.87 0.85-1.31 0.42-0.62 0.84-1.25 1.25-1.87 0.53-0.79 1.05-1.59 1.58-2.39 0.47-0.7 0.95-1.41 1.42-2.11 0.32-0.47 0.61-0.96 0.94-1.43 0.46-0.67 0.94-1.32 1.41-1.98 0.31-0.44 0.58-0.89 0.9-1.32 0.31-0.44 0.55-0.92 0.92-1.33 0.34-0.38 0.56-0.85 0.84-1.29 0.24-0.38 0.46-0.76 0.71-1.13 0.23-0.34 0.49-0.65 0.73-0.99 0.59-0.86 1.18-1.74 1.76-2.6 0.4-0.6 0.81-1.2 1.21-1.8 0.45-0.69 0.89-1.38 1.34-2.07 0.37-0.57 0.76-1.12 1.13-1.69 0.38-0.58 0.74-1.16 1.12-1.74 0.39-0.6 0.8-1.18 1.2-1.77 0.39-0.6 0.76-1.21 1.16-1.8 0.53-0.78 1.09-1.53 1.62-2.31 0.46-0.68 0.88-1.38 1.41-2.02 0.05-0.05 0.07-0.13 0.11-0.19 0.28-0.4 0.43-0.89 0.87-1.17 0.02-0.01 0.05-0.04 0.04-0.06 -0.02-0.37 0.35-0.51 0.49-0.8 0.18-0.37 0.48-0.69 0.76-1 0.39-0.42 0.7-0.89 0.97-1.39 0.25-0.46 0.42-0.96 0.73-1.39 0.33-0.45 0.66-0.89 0.99-1.34 0.26-0.35 0.53-0.69 0.76-1.05 0.37-0.58 0.67-1.2 1.24-1.62 0.05-0.04 0.09-0.09 0.12-0.14 0.15-0.22 0.3-0.44 0.44-0.65 0.03-0.05 0.06-0.11 0.07-0.16 0.09-0.4 0.33-0.72 0.56-1.04 0.05-0.07 0.12-0.13 0.14-0.21 0.12-0.47 0.3-0.91 0.6-1.31 0.11-0.15 0.16-0.33 0.07-0.57 -0.13-0.36-0.33-0.66-0.53-0.98 -0.59-0.93-1.16-1.87-1.75-2.8 -0.46-0.74-0.94-1.46-1.39-2.2 -0.2-0.32-0.28-0.34-0.51-0.05 -0.04 0.06-0.04 0.15-0.08 0.21 -0.09 0.12-0.19 0.32-0.29 0.33 -0.2 0.01-0.29 0.15-0.29 0.25 -0.01 0.31-0.34 0.34-0.44 0.57 -0.02 0.06-0.31 0.06-0.25 0.2 0.1 0.23-0.19 0.12-0.17 0.28 0.02 0.21-0.19 0.26-0.37 0.33 0.2 0.15 0.02 0.23-0.06 0.32 -0.08 0.1-0.21 0.16-0.28 0.27 -0.25 0.39-0.49 0.79-0.74 1.19 -0.2 0.32-0.19 0.31 0.03 0.63 0.29 0.42 0.56 0.86 0.84 1.3 -0.3 0.1-0.35 0.2-0.26 0.43 0.01 0.03 0.01 0.07 0 0.1 -0.05 0.21-0.11 0.41-0.15 0.54C48.8 75.97 48.66 76.06 48.6 76.19zM134.6 20.09c-0.24 0.38-0.48 0.76-0.73 1.13 -0.34 0.5-0.71 0.97-1.04 1.48 -0.47 0.7-0.9 1.43-1.38 2.13 -0.65 0.95-1.32 1.88-1.98 2.82 -0.53 0.75-1.06 1.5-1.58 2.25 -0.35 0.51-0.67 1.03-1.02 1.53 -0.43 0.62-0.88 1.23-1.32 1.85 -0.35 0.49-0.67 1-1.03 1.49 -0.49 0.67-0.92 1.38-1.38 2.08 -0.16 0.24-0.33 0.47-0.49 0.71 -0.17 0.26-0.33 0.53-0.51 0.79 -0.24 0.35-0.49 0.68-0.73 1.03 -0.47 0.69-0.93 1.38-1.39 2.07 -0.51 0.76-1.02 1.53-1.53 2.29 -0.59 0.87-1.18 1.74-1.76 2.61 -0.28 0.42-0.56 0.84-0.84 1.26 -0.33 0.5-0.66 1.01-1 1.51 -0.37 0.55-0.76 1.09-1.13 1.64 -0.36 0.53-0.7 1.07-1.06 1.6 -0.48 0.69-0.99 1.37-1.47 2.07 -0.42 0.61-0.82 1.23-1.23 1.84 -0.49 0.72-0.98 1.43-1.51 2.12 -0.53 0.71-1.04 1.44-1.54 2.17 -0.24 0.35-0.43 0.73-0.69 1.06 -0.34 0.44-0.71 0.85-0.99 1.34 -0.11 0.2-0.26 0.38-0.39 0.56 -0.26 0.38-0.53 0.75-0.79 1.12 -0.2 0.29-0.39 0.58-0.59 0.87 -0.09 0.13-0.19 0.24-0.27 0.37 -0.18 0.32-0.33 0.67-0.54 0.98 -0.28 0.44-0.61 0.84-0.9 1.27 -0.49 0.72-0.96 1.45-1.45 2.17 -0.51 0.75-1.02 1.49-1.54 2.23 -0.08 0.11-0.21 0.2-0.32 0.29 -0.09 0.08-0.2 0.13-0.3 0.21 -0.57 0.45-0.96 1.05-1.41 1.61 -0.13 0.16-0.12 0.35-0.06 0.52 0.13 0.32 0.27 0.64 0.44 0.95 0.1 0.19 0.22 0.39 0.39 0.52 0.31 0.24 0.5 0.55 0.7 0.86 0.24 0.38 0.47 0.76 0.72 1.13 0.29 0.44 0.61 0.87 0.9 1.31 0.4 0.61 0.78 1.23 1.17 1.84 0.11 0.17 0.27 0.32 0.41 0.49 0.11-0.15 0.16-0.31 0.27-0.38 0.2-0.12 0.27-0.28 0.33-0.48 0.05-0.16 0.11-0.31 0.31-0.37 0.11-0.03 0.19-0.17 0.26-0.28 0.07-0.11 0.07-0.27 0.16-0.36 0.38-0.41 0.48-0.98 0.87-1.38 0.13-0.13 0.26-0.28 0.36-0.44 0.26-0.4 0.5-0.82 0.77-1.22 0.15-0.21 0.16-0.39 0.02-0.59 -0.25-0.38-0.49-0.76-0.72-1.15 -0.04-0.07-0.07-0.19-0.04-0.26 0.12-0.25 0.25-0.49 0.41-0.72 0.17-0.26 0.38-0.5 0.56-0.76 0.18-0.27 0.33-0.56 0.51-0.82 0.22-0.33 0.48-0.64 0.7-0.97 0.38-0.57 0.65-1.2 1.08-1.74 0.39-0.5 0.7-1.06 1.05-1.6 0.09-0.14 0.18-0.28 0.29-0.41 0.32-0.38 0.64-0.74 0.88-1.18 0.09-0.16 0.13-0.35 0.25-0.48 0.25-0.28 0.44-0.6 0.63-0.92 0.23-0.37 0.51-0.71 0.74-1.07 0.23-0.36 0.5-0.69 0.72-1.06 0.29-0.48 0.65-0.93 0.97-1.4 0.65-0.93 1.29-1.86 1.94-2.8 0.38-0.56 0.76-1.12 1.14-1.68 0.28-0.4 0.57-0.78 0.84-1.18 0.48-0.7 0.94-1.4 1.42-2.1 0.42-0.62 0.85-1.24 1.28-1.85 0.09-0.13 0.26-0.21 0.35-0.35 0.1-0.14 0.12-0.34 0.21-0.48 0.17-0.28 0.37-0.54 0.55-0.81 0.55-0.82 1.1-1.65 1.65-2.47 0.45-0.68 0.9-1.37 1.34-2.06 0.49-0.75 0.97-1.5 1.46-2.25 0.47-0.72 0.94-1.44 1.42-2.15 0.43-0.63 0.87-1.25 1.3-1.88 0.6-0.88 1.2-1.76 1.81-2.63 0.53-0.76 1.08-1.52 1.61-2.28 0.65-0.93 1.29-1.87 1.94-2.81 0.41-0.59 0.83-1.16 1.24-1.75 0.59-0.87 1.17-1.75 1.76-2.62 0.84-1.23 1.68-2.45 2.52-3.68 0.51-0.75 1.01-1.51 1.52-2.26 0.47-0.7 0.91-1.42 1.4-2.11 0.35-0.49 0.63-1.03 1.12-1.42 0.1-0.08 0.15-0.21 0.22-0.32 0.07-0.11 0.16-0.21 0.21-0.33 0.17-0.36 0.34-0.71 0.47-1.09 0.04-0.12-0.03-0.28-0.06-0.42 -0.01-0.05-0.1-0.12-0.13-0.11 -0.26 0.07-0.43-0.1-0.64-0.18 -0.44-0.17-0.89-0.33-1.34-0.5 -0.05-0.02-0.12-0.01-0.17-0.02 -0.13-0.01-0.26-0.02-0.39-0.04 -0.22-0.04-0.43-0.1-0.67-0.05 -0.15 0.04-0.32-0.04-0.48-0.07 -0.05-0.01-0.09-0.02-0.14-0.02 -0.41 0.04-0.8-0.02-1.13-0.23 -0.13 0.05-0.25 0.09-0.35 0.15 -0.15 0.09-0.34 0.17-0.43 0.31 -0.14 0.23-0.36 0.39-0.46 0.67 -0.11 0.3-0.34 0.56-0.52 0.84 -0.15 0.23-0.3 0.47-0.45 0.7 -0.31 0.47-0.63 0.94-0.95 1.41 -0.13 0.2-0.26 0.41-0.62 0.47C134.77 19.89 134.66 19.99 134.6 20.09zM107.82 74.13c0.16 0.24 0.15 0.26-0.02 0.51 -0.3 0.44-0.6 0.88-0.86 1.34 -0.11 0.19-0.22 0.36-0.36 0.53 -0.21 0.24-0.45 0.48-0.44 0.85 0 0.06-0.05 0.14-0.1 0.18 -0.52 0.38-0.8 0.95-1.17 1.45 -0.22 0.3-0.44 0.6-0.66 0.91 -0.18 0.25-0.39 0.48-0.51 0.75 -0.08 0.18-0.17 0.35-0.27 0.53 -0.2 0.34-0.52 0.58-0.7 0.94 -0.18 0.36-0.43 0.69-0.63 1.05 -0.08 0.14-0.07 0.33-0.16 0.46 -0.35 0.55-0.72 1.08-1.07 1.64 -0.49 0.8-1.05 1.56-1.57 2.35 -0.38 0.57-0.74 1.16-1.11 1.73 -0.23 0.37-0.47 0.73-0.71 1.09 -0.48 0.72-0.98 1.43-1.46 2.15 -0.42 0.63-0.83 1.27-1.25 1.91 -0.33 0.5-0.66 1-0.98 1.51 -0.27 0.42-0.52 0.85-0.79 1.27 -0.22 0.33-0.48 0.63-0.68 0.98 -0.4 0.71-0.93 1.35-1.26 2.09 -0.01 0.03-0.05 0.05-0.07 0.08 -0.17 0.23-0.37 0.45-0.52 0.69 -0.16 0.26-0.28 0.56-0.44 0.82 -0.19 0.31-0.41 0.59-0.61 0.89 -0.17 0.25-0.33 0.49-0.49 0.75 -0.38 0.62-0.75 1.24-1.14 1.85 -0.31 0.49-0.64 0.96-0.95 1.45 -0.27 0.41-0.53 0.83-0.81 1.23 -0.29 0.43-0.6 0.85-0.88 1.28 -0.49 0.74-0.97 1.5-1.45 2.25 -0.27 0.41-0.55 0.82-0.81 1.24 -0.31 0.49-0.61 0.98-0.93 1.46 -0.27 0.41-0.58 0.8-0.85 1.21 -0.56 0.84-1.1 1.69-1.66 2.54 -0.16 0.25-0.37 0.47-0.52 0.73 -0.3 0.52-0.56 1.06-1.02 1.48 -0.02 0.02-0.02 0.06-0.04 0.09 -0.03 0.09-0.04 0.18-0.09 0.26 -0.26 0.41-0.52 0.81-0.79 1.22 -0.18 0.28-0.36 0.57-0.57 0.84 -0.13 0.17-0.14 0.3-0.04 0.48 0.27 0.49 0.64 0.91 0.94 1.37 0.26 0.4 0.58 0.74 0.79 1.18 0.14 0.29 0.33 0.55 0.59 0.75 0.11 0.09 0.1 0.19-0.05 0.27 0.36 0.25 0.61 0.58 0.82 0.95 0.05 0.09 0.12 0.18 0.2 0.25 0.1 0.09 0.21 0.15 0.32 0.23 0.04-0.05 0.09-0.1 0.13-0.16 0.56-0.88 1.11-1.76 1.67-2.63 0.71-1.09 1.42-2.18 2.13-3.27 0.3-0.47 0.6-0.94 0.9-1.41 0.31-0.49 0.64-0.97 0.95-1.46 0.35-0.55 0.68-1.11 1.04-1.66 0.56-0.86 1.14-1.71 1.7-2.56 0.24-0.37 0.47-0.75 0.72-1.12 0.1-0.15 0.23-0.27 0.33-0.42 0.19-0.28 0.36-0.57 0.54-0.85 0.33-0.51 0.66-1.03 0.99-1.54 0.14-0.22 0.25-0.46 0.42-0.65 0.38-0.4 0.62-0.87 0.87-1.34 0.09-0.16 0.24-0.29 0.34-0.45 0.14-0.2 0.26-0.4 0.38-0.61 0.06-0.09 0.08-0.2 0.14-0.29 0.4-0.58 0.81-1.15 1.19-1.73 0.4-0.6 0.79-1.22 1.18-1.83 0.36-0.56 0.73-1.12 1.08-1.68 0.17-0.26 0.31-0.54 0.48-0.8 0.18-0.27 0.41-0.5 0.58-0.78 0.52-0.81 1.02-1.64 1.53-2.45 0.14-0.21 0.3-0.4 0.44-0.62 0.3-0.46 0.58-0.92 0.88-1.38 0.32-0.48 0.65-0.96 0.97-1.44 0.22-0.34 0.42-0.71 0.64-1.05 0.42-0.64 0.85-1.27 1.26-1.9 0.6-0.92 1.2-1.84 1.81-2.76 0.12-0.18 0.24-0.35 0.43-0.48 0.15-0.11 0.23-0.32 0.35-0.49 0.1-0.15 0.2-0.29 0.31-0.44 0.12-0.15 0.25-0.29 0.36-0.44 0.12-0.18 0.23-0.37 0.34-0.55 0.11-0.2 0.22-0.39 0.32-0.6 0.09-0.18 0.14-0.39 0.26-0.56 0.28-0.4 0.59-0.78 0.88-1.18 0.26-0.35 0.64-0.63 0.68-1.12 0.01-0.05 0.07-0.1 0.1-0.15 0.38-0.57 0.75-1.15 1.13-1.72 0.48-0.71 0.97-1.41 1.45-2.12 0.4-0.6 0.79-1.21 1.19-1.81 0.37-0.55 0.71-1.13 1.11-1.65 0.35-0.45 0.57-0.97 0.83-1.47 0.04-0.07 0.05-0.16 0.07-0.23 -0.31-0.36-0.45-0.45-0.96-0.61 -0.13-0.04-0.18-0.14-0.23-0.26 -0.05-0.13-0.12-0.26-0.22-0.36 -0.48-0.5-0.85-1.08-1.21-1.66 -0.24-0.39-0.49-0.77-0.74-1.15 -0.35-0.52-0.72-1.03-1.08-1.55 -0.15-0.21-0.29-0.43-0.45-0.66 -0.25 0.32-0.44 0.63-0.7 0.88 -0.76 0.73-1.28 1.63-1.79 2.54 -0.25 0.44-0.51 0.87-0.78 1.34C107.24 73.24 107.53 73.68 107.82 74.13zM108.16 87.36c-0.24 0.32-0.48 0.64-0.71 0.97 -0.34 0.48-0.66 0.96-1 1.44 -0.07 0.1-0.07 0.2-0.01 0.3 0.05 0.08 0.1 0.17 0.15 0.25 0.68 1.07 1.37 2.14 2.05 3.21 0.65 1.03 1.31 2.05 1.96 3.08 0.56 0.9 1.11 1.81 1.67 2.71 0.4 0.65 0.83 1.28 1.23 1.93 0.55 0.88 1.08 1.77 1.63 2.65 0.37 0.58 0.76 1.15 1.14 1.72 0.66 1.01 1.31 2.03 1.96 3.05 0.42 0.66 0.84 1.33 1.26 1.99 0.59 0.91 1.2 1.82 1.78 2.73 0.56 0.87 1.1 1.76 1.65 2.64 0.33 0.52 0.68 1.02 1.01 1.55 0.53 0.84 1.04 1.69 1.57 2.52 0.26 0.41 0.54 0.8 0.8 1.21 0.6 0.95 1.18 1.91 1.77 2.87 0.31 0.5 0.64 0.99 0.95 1.5 0.38 0.62 0.74 1.25 1.12 1.86 0.23 0.38 0.5 0.74 0.74 1.11 0.35 0.55 0.69 1.11 1.03 1.66 0.49 0.8 0.98 1.61 1.47 2.41 0.22 0.36 0.5 0.7 0.64 1.09 0.16 0.47 0.46 0.84 0.69 1.26 0.34 0.65 0.75 1.26 1.06 1.92 0.17 0.37 0.4 0.75 0.35 1.2 -0.01 0.07 0.05 0.15 0.1 0.22 0.05 0.08 0.14 0.14 0.17 0.23 0.14 0.39 0.45 0.66 0.73 0.94 0.18 0.18 0.41 0.29 0.69 0.24 0.33-0.06 0.67-0.12 1-0.16 0.19-0.02 0.38-0.03 0.53-0.2 0.06-0.06 0.17-0.09 0.26-0.1 0.28-0.04 0.57-0.05 0.86-0.1 0.09-0.02 0.22-0.09 0.25-0.17 0.09-0.23 0.28-0.26 0.44-0.19 0.19 0.08 0.36 0.01 0.53-0.02 0.21-0.04 0.41-0.14 0.64-0.06 0.08 0.03 0.22-0.04 0.29-0.11 0.22-0.21 0.41-0.43 0.61-0.66 0.02-0.02 0.03-0.06 0.04-0.1 0.09-0.46 0.14-0.92-0.11-1.37 -0.17-0.3-0.32-0.62-0.48-0.93 -0.08-0.15-0.14-0.31-0.23-0.44 -0.14-0.21-0.29-0.41-0.23-0.61 -0.19-0.17-0.36-0.28-0.47-0.44 -0.28-0.39-0.54-0.79-0.79-1.2 -0.06-0.09-0.05-0.23-0.08-0.34 -0.03-0.11-0.06-0.28-0.13-0.3 -0.28-0.09-0.38-0.31-0.53-0.52 -0.34-0.5-0.72-0.97-1.05-1.48 -0.6-0.91-1.18-1.83-1.76-2.75 -0.36-0.57-0.72-1.15-1.09-1.72 -0.35-0.55-0.7-1.1-1.05-1.65 -0.25-0.38-0.51-0.76-0.76-1.14 -0.03-0.05-0.05-0.11-0.08-0.16 -0.09-0.16-0.17-0.32-0.26-0.47 -0.11-0.18-0.25-0.35-0.37-0.53 -0.13-0.2-0.23-0.41-0.36-0.61 -0.38-0.55-0.69-1.14-1.08-1.69 -0.41-0.58-0.76-1.2-1.16-1.79 -0.23-0.35-0.43-0.71-0.71-1.04 -0.22-0.25-0.35-0.59-0.55-0.87 -0.3-0.42-0.56-0.87-0.84-1.31 -0.62-0.95-1.25-1.9-1.87-2.85 -0.42-0.64-0.83-1.28-1.24-1.92 -0.33-0.5-0.67-1-1-1.5 -0.44-0.68-0.86-1.36-1.3-2.04 -0.2-0.32-0.41-0.62-0.61-0.94 -0.3-0.48-0.59-0.96-0.89-1.44 -0.17-0.27-0.36-0.54-0.53-0.81 -0.28-0.46-0.53-0.95-0.83-1.39 -0.43-0.64-0.82-1.3-1.22-1.96 -0.24-0.4-0.52-0.77-0.75-1.18 -0.28-0.51-0.66-0.97-0.94-1.49 -0.35-0.65-0.85-1.19-1.2-1.84 -0.33-0.61-0.75-1.18-1.13-1.76 -0.41-0.63-0.81-1.27-1.23-1.91 -0.31-0.47-0.62-0.94-0.92-1.41 -0.2-0.31-0.41-0.62-0.6-0.93 -0.12-0.19-0.23-0.39-0.35-0.58 -0.08-0.12-0.18-0.22-0.26-0.34 -0.22-0.34-0.44-0.69-0.66-1.03 -0.44-0.7-0.89-1.4-1.33-2.1 -0.08-0.13-0.18-0.25-0.29-0.39 -0.3 0.52-0.58 1-0.87 1.47 -0.06 0.1-0.14 0.2-0.23 0.27 -0.18 0.14-0.32 0.28-0.29 0.48C108.35 87.12 108.25 87.24 108.16 87.36zM73.1 25.16c-0.11 0.16-0.18 0.36-0.28 0.53 -0.07 0.13-0.18 0.23-0.24 0.36 -0.05 0.11-0.22 0.11-0.19 0.3 0.02 0.11-0.14 0.24-0.23 0.35 -0.09 0.11-0.21 0.2-0.28 0.32 -0.15 0.24-0.28 0.5-0.44 0.74 -0.38 0.55-0.78 1.09-1.17 1.63 -0.12 0.16-0.23 0.33-0.35 0.49 -0.25 0.34-0.52 0.67-0.76 1.01 -0.31 0.44-0.61 0.89-0.91 1.34 -0.16 0.23-0.39 0.44-0.48 0.7 -0.13 0.37-0.39 0.61-0.61 0.9 -0.18 0.23-0.47 0.4-0.49 0.74 0 0.04-0.05 0.08-0.08 0.12 -0.16 0.21-0.34 0.42-0.5 0.64 -0.16 0.22-0.3 0.45-0.45 0.68 -0.16 0.24-0.3 0.51-0.51 0.72 -0.2 0.21-0.36 0.44-0.51 0.68 -0.23 0.35-0.37 0.75-0.71 1.03 -0.02 0.02-0.02 0.07-0.04 0.1 -0.14 0.28-0.35 0.52-0.5 0.79 -0.19 0.33-0.52 0.57-0.7 0.94 -0.15 0.31-0.5 0.5-0.56 0.88 -0.25 0.14-0.21 0.46-0.41 0.65 -0.18 0.16-0.3 0.39-0.45 0.59 -0.07 0.09-0.17 0.16-0.22 0.25 -0.15 0.25-0.28 0.51-0.42 0.77 -0.02 0.04-0.04 0.1-0.08 0.12 -0.27 0.12-0.33 0.4-0.47 0.61 -0.2 0.32-0.42 0.64-0.64 0.95 -0.16 0.23-0.35 0.44-0.5 0.67 -0.17 0.26-0.31 0.54-0.46 0.81 -0.04 0.06-0.07 0.17-0.12 0.17 -0.29 0.02-0.28 0.26-0.35 0.44 -0.03 0.08-0.05 0.2-0.1 0.22 -0.14 0.06-0.18 0.16-0.25 0.28 -0.12 0.23-0.27 0.45-0.42 0.67 -0.18 0.26-0.37 0.51-0.54 0.78 -0.14 0.24-0.25 0.49-0.5 0.64 -0.04 0.02-0.07 0.07-0.09 0.11 -0.14 0.34-0.29 0.67-0.64 0.85 -0.05 0.03-0.07 0.09-0.1 0.15 -0.1 0.23-0.04 0.54-0.36 0.64 -0.04 0.27-0.16 0.48-0.41 0.6 -0.11 0.39-0.4 0.66-0.64 0.96 -0.07 0.09-0.1 0.22-0.17 0.32 -0.17 0.22-0.38 0.4-0.51 0.63 -0.25 0.43-0.44 0.9-0.86 1.21 -0.03 0.02-0.02 0.09-0.04 0.13 -0.04 0.09-0.06 0.19-0.12 0.26 -0.19 0.25-0.39 0.47-0.55 0.75 -0.19 0.34-0.48 0.63-0.7 0.97 -0.3 0.49-0.66 0.95-1.03 1.4 -0.25 0.3-0.42 0.66-0.62 1 -0.16 0.27-0.32 0.53-0.57 0.74 -0.11 0.09-0.18 0.23-0.27 0.34 -0.34 0.43-0.68 0.87-1.03 1.29 -0.15 0.19-0.34 0.34-0.48 0.53 -0.25 0.34-0.46 0.69-0.7 1.03 -0.32 0.46-0.66 0.92-0.99 1.38 -0.05 0.07-0.08 0.15-0.11 0.23 -0.21 0.61-0.45 1.2-0.94 1.64 -0.09 0.08-0.16 0.18-0.23 0.28 -0.43 0.61-0.85 1.22-1.27 1.83 -0.65 0.94-1.3 1.88-1.95 2.83 -0.35 0.52-0.69 1.05-1.06 1.55 -0.39 0.54-0.77 1.09-1.29 1.51 -0.34 0.27-0.58 0.58-0.43 1.05 0 0.01 0 0.02 0 0.04 -0.03 0.31 0.14 0.52 0.33 0.73 0.25 0.28 0.46 0.59 0.68 0.88 0.06 0.08 0.1 0.16 0.15 0.24 0.29 0.39 0.6 0.76 0.87 1.16 0.28 0.41 0.48 0.87 0.78 1.26 0.29 0.38 0.52 0.78 0.77 1.18 0.18 0.3 0.39 0.57 0.59 0.85 0.32-0.35 0.58-0.68 0.89-0.96 0.34-0.32 0.71-0.61 0.98-1.01 0.07-0.1 0.16-0.18 0.25-0.26 0.2-0.19 0.41-0.38 0.61-0.57 0.04-0.04 0.09-0.11 0.08-0.14 -0.06-0.15 0.05-0.23 0.12-0.32 0.25-0.3 0.51-0.6 0.78-0.89 0.28-0.29 0.34-0.73 0.11-0.98 -0.34-0.37-0.54-0.82-0.81-1.24 -0.09-0.14-0.07-0.24 0-0.36 0.04-0.06 0.08-0.12 0.12-0.18 0.54-0.82 1.07-1.65 1.61-2.46 0.23-0.34 0.5-0.65 0.76-0.97 0.21-0.26 0.46-0.49 0.66-0.76 0.32-0.44 0.61-0.89 0.93-1.33 0.11-0.16 0.29-0.27 0.38-0.44 0.31-0.58 0.66-1.12 1.07-1.63 0.12-0.15 0.23-0.36 0.24-0.55 0.01-0.15 0.06-0.25 0.13-0.35 0.56-0.82 1.11-1.64 1.68-2.45 0.55-0.79 1.11-1.58 1.67-2.36 0.22-0.32 0.47-0.62 0.67-0.95 0.43-0.72 0.88-1.42 1.4-2.07 0.2-0.25 0.37-0.53 0.56-0.8 0.33-0.49 0.66-0.99 1-1.47 0.3-0.42 0.64-0.82 0.93-1.25 0.6-0.86 1.17-1.75 1.76-2.61 0.54-0.79 1.09-1.56 1.64-2.34 0.45-0.64 0.89-1.3 1.34-1.94 0.42-0.6 0.85-1.2 1.27-1.81 0.53-0.78 1.04-1.57 1.57-2.35 0.8-1.18 1.62-2.35 2.43-3.52 0.24-0.35 0.46-0.71 0.7-1.06 0.53-0.75 1.06-1.49 1.59-2.24 0.42-0.6 0.82-1.22 1.24-1.82 0.41-0.6 0.84-1.18 1.26-1.78 0.4-0.57 0.8-1.15 1.21-1.72 0.25-0.35 0.52-0.69 0.77-1.04 0.15-0.2 0.28-0.42 0.43-0.62 0.13-0.17 0.26-0.35 0.41-0.5 0.25-0.23 0.3-0.3 0.17-0.61 -0.19-0.45-0.41-0.89-0.73-1.26 -0.43-0.49-0.72-1.06-1.04-1.61 -0.26-0.45-0.49-0.92-0.84-1.31 -0.16-0.17-0.24-0.41-0.38-0.65 -0.06-0.01-0.16-0.02-0.26-0.04C73.35 24.87 73.21 25 73.1 25.16zM78.24 29.9c0.03 0.01 0.07 0.06 0.07 0.09 0 0.16 0.1 0.26 0.2 0.36 0.17 0.18 0.32 0.37 0.47 0.57 0.19 0.27 0.37 0.54 0.55 0.81 0.74 1.08 1.48 2.15 2.22 3.23 0.14 0.21 0.3 0.41 0.44 0.62 0.21 0.31 0.41 0.63 0.62 0.94 0.33 0.49 0.66 0.98 0.99 1.48 0.53 0.81 1.06 1.62 1.6 2.42 0.71 1.05 1.42 2.1 2.13 3.15 0.13 0.19 0.23 0.4 0.36 0.59 0.44 0.64 0.89 1.26 1.32 1.9 0.44 0.65 0.85 1.32 1.26 1.99 0.03 0.05 0.05 0.1 0.06 0.15 0.05 0.13 0.07 0.27 0.14 0.38 0.16 0.24 0.35 0.46 0.51 0.7 0.43 0.63 0.85 1.26 1.28 1.89 0.84 1.25 1.67 2.49 2.51 3.74 0.76 1.13 1.51 2.25 2.27 3.37 0.33 0.48 0.65 0.97 0.99 1.44 0.3 0.41 0.63 0.8 0.92 1.21 0.42 0.59 0.82 1.2 1.22 1.8 0.33 0.49 0.65 0.99 0.98 1.49 0.17 0.26 0.35 0.53 0.52 0.79 0.12-0.14 0.21-0.25 0.3-0.37 0.24-0.32 0.5-0.62 0.71-0.96 0.14-0.23 0.28-0.44 0.52-0.59 0.11-0.07 0.2-0.17 0.27-0.28 0.19-0.3 0.37-0.6 0.55-0.91 0.31-0.53 0.6-1.07 0.9-1.6 -0.38-0.56-0.75-1.1-1.11-1.64 -0.49-0.73-0.98-1.47-1.47-2.2 -0.58-0.86-1.16-1.73-1.73-2.59 -0.31-0.46-0.6-0.93-0.91-1.4 -0.51-0.77-1.03-1.52-1.54-2.29 -0.5-0.76-0.97-1.53-1.47-2.29 -0.92-1.41-1.85-2.81-2.77-4.21 -0.71-1.08-1.41-2.17-2.12-3.25 -0.67-1.02-1.34-2.04-2.01-3.06 -0.22-0.33-0.42-0.67-0.64-1 -0.43-0.64-0.87-1.28-1.31-1.92 -0.47-0.69-0.94-1.37-1.41-2.06 -0.29-0.43-0.59-0.85-0.88-1.28 -0.48-0.73-0.95-1.48-1.44-2.21 -0.43-0.64-0.9-1.26-1.33-1.9 -0.5-0.74-0.97-1.5-1.46-2.25 -0.12-0.18-0.26-0.35-0.39-0.52 -0.07-0.09-0.15-0.18-0.19-0.28 -0.16-0.32-0.23-0.7-0.52-0.95 -0.16-0.14-0.24-0.32-0.33-0.5 -0.1-0.19-0.2-0.38-0.3-0.56 -0.03-0.05-0.09-0.11-0.13-0.1 -0.23 0.05-0.25-0.14-0.31-0.27 -0.06-0.12-0.07-0.26-0.14-0.37 -0.33-0.51-0.69-1-1.03-1.51 -0.27-0.39-0.55-0.76-0.79-1.16 -0.2-0.33-0.35-0.69-0.53-1.03 -0.14-0.28-0.27-0.56-0.42-0.84 -0.1-0.2-0.19-0.42-0.34-0.58 -0.23-0.27-0.5-0.52-0.67-0.85 -0.15-0.28-0.42-0.31-0.71-0.18 -0.29 0.13-0.6 0.26-0.91 0.35 -0.32 0.09-0.62 0.18-0.83 0.45 -0.04 0.05-0.09 0.08-0.15 0.1 -0.22 0.08-0.44 0.15-0.65 0.24 -0.15 0.06-0.3 0.08-0.35 0.31 -0.05 0.24-0.22 0.26-0.47 0.13 -0.07-0.04-0.17-0.03-0.3-0.05 0.07 0.13 0.11 0.2 0.14 0.25 -0.11 0.09-0.26 0.15-0.31 0.25 -0.07 0.18-0.19 0.23-0.35 0.26 -0.09 0.02-0.19 0.06-0.24 0.13 -0.15 0.19-0.09 0.5 0.08 0.69 0.15 0.17 0.3 0.35 0.4 0.55 0.14 0.28 0.34 0.51 0.53 0.75 0.27 0.35 0.51 0.72 0.76 1.08 -0.09 0.08-0.14 0.12-0.23 0.2 0.16 0.02 0.26 0.04 0.37 0.06 0.11 0.16 0.24 0.31 0.33 0.48 0.15 0.28 0.32 0.56 0.42 0.86 0.11 0.33 0.43 0.49 0.59 0.79 0.08 0.15 0.23 0.27 0.35 0.4 0.28 0.3 0.57 0.59 0.83 0.9 0.2 0.25 0.36 0.53 0.53 0.79 0.16 0.26 0.33 0.51 0.47 0.78 0.16 0.31 0.31 0.62 0.56 0.87 0.11 0.11 0.16 0.28 0.25 0.42 0.19 0.31 0.36 0.63 0.56 0.93 0.24 0.35 0.57 0.63 0.69 1.05 0.05 0.17 0.2 0.3 0.35 0.5C78.08 29.62 78 29.79 78.24 29.9zM67.72 136.86c0.2 0.16 0.43 0.29 0.66 0.41 0.43 0.24 0.78 0.61 1.29 0.72 0.04 0.01 0.1 0.04 0.12 0.07 0.15 0.23 0.36 0.35 0.61 0.43 0.05 0.02 0.1 0.07 0.14 0.11 0.07 0.06 0.14 0.12 0.2 0.18 0.07 0.06 0.13 0.13 0.2 0.18 0.07 0.06 0.14 0.12 0.22 0.16 0.11 0.06 0.22 0.1 0.33 0.14 0.38 0.15 0.74 0.2 1.06-0.16 0.21-0.23 0.47-0.42 0.69-0.64 0.16-0.16 0.32-0.33 0.45-0.51 0.54-0.82 1.05-1.65 1.59-2.47 0.1-0.14 0.1-0.25 0-0.39 -0.09-0.11-0.15-0.25-0.22-0.37 -0.14-0.23-0.28-0.47-0.44-0.7 -0.3-0.42-0.69-0.77-0.92-1.25 -0.15-0.31-0.39-0.58-0.59-0.87 -0.25-0.37-0.52-0.73-0.73-1.12 -0.17-0.3-0.39-0.55-0.69-0.75 -0.16 0.23-0.32 0.45-0.46 0.67 -0.11 0.17-0.2 0.35-0.32 0.52 -0.16 0.23-0.35 0.45-0.51 0.69 -0.33 0.51-0.62 1.03-0.96 1.54 -0.35 0.52-0.73 1.02-1.1 1.52 -0.16 0.22-0.29 0.46-0.49 0.63 -0.27 0.23-0.39 0.51-0.48 0.87C67.46 136.59 67.57 136.75 67.72 136.86zM81.82 22.67c0.27-0.37 0.55-0.73 0.79-1.12 0.41-0.65 0.87-1.27 1.41-1.82 0.4-0.41 0.67-0.86 0.74-1.43 0.01-0.07 0.03-0.14 0.07-0.2 0.24-0.37 0.5-0.74 0.73-1.12 0.25-0.43 0.57-0.82 0.7-1.32 0.07-0.26-0.02-0.74-0.22-0.81 -0.23-0.08-0.5-0.15-0.72-0.09 -0.39 0.1-0.78-0.02-1.17 0.03 -0.05 0.01-0.11-0.03-0.16-0.06 -0.17-0.11-0.34-0.09-0.51 0 -0.08 0.04-0.18 0.06-0.27 0.05 -0.42-0.04-0.8-0.02-1.1 0.35 -0.14 0.16-0.34 0.26-0.61 0.16 -0.17-0.07-0.41 0.08-0.6-0.06 -0.02-0.02-0.11 0.04-0.15 0.07 -0.12 0.09-0.21 0.06-0.32-0.03 -0.24-0.21-0.35-0.2-0.63-0.02 -0.35 0.21-0.7 0.42-1.06 0.62 -0.25 0.14-0.28 0.42-0.05 0.58 0.09 0.06 0.19 0.1 0.28 0.14 -0.13 0.45-0.29 0.86-0.63 1.18 -0.09 0.09-0.15 0.21-0.23 0.32 0.15 0.19 0.3 0.36 0.42 0.55 0.12 0.18 0.22 0.37 0.33 0.56 0.06 0.09 0.13 0.17 0.19 0.26 0.16 0.22 0.32 0.44 0.47 0.67 0.12 0.19 0.21 0.4 0.39 0.56 0.1 0.09 0.21 0.24 0.21 0.36 0 0.17 0.09 0.27 0.18 0.38 0.13 0.18 0.26 0.35 0.38 0.53 0.26 0.39 0.51 0.79 0.78 1.22C81.6 22.95 81.71 22.82 81.82 22.67zM32.46 94.09c0.04-0.03 0.12-0.06 0.12-0.1 0.01-0.09-0.01-0.18-0.03-0.29 -0.09 0.04-0.16 0.06-0.27 0.11C32.35 93.91 32.4 94 32.46 94.09zM42.85 66.36c-0.13-0.14-0.22-0.24-0.31-0.34C42.64 66.3 42.64 66.3 42.85 66.36zM46.5 75.12c0.2 0.02 0.24-0.09 0.24-0.26C46.56 74.96 46.56 74.96 46.5 75.12zM29.57 75.2c0 0-0.04-0.03-0.05-0.03 -0.03 0.01-0.05 0.04-0.08 0.06 0.02 0.02 0.05 0.03 0.09 0.06C29.55 75.25 29.56 75.23 29.57 75.2z"/>
</svg>
